# xmcd CD database file
#
# Track frame offsets:
#	150
#	15756
#	30136
#	37458
#	47348
#	60209
#	81625
#	95615
#	102193
#	138699
#
# Disc length: 2006 seconds
#
# Revision: 1
# Processed by: cddbd v1.5.2PL0 Copyright (c) Steve Scherf et al.
# Submitted via: CDex 1.51
#
DISCID=7507d40a
DTITLE=Ray Cooper - TABERNACLE
DYEAR=2005
DGENRE=New Age
TTITLE0=Morning Silhouettes
TTITLE1=Better
TTITLE2=Wisps of Grey
TTITLE3=Drops
TTITLE4=Sitting and Wondering
TTITLE5=Drifting
TTITLE6=Cascades
TTITLE7=The Turning
TTITLE8=Familiar Moments
TTITLE9=A New Day
EXTD=YEAR: 2005
EXTT0=
EXTT1=
EXTT2=
EXTT3=
EXTT4=
EXTT5=
EXTT6=
EXTT7=
EXTT8=
EXTT9=
PLAYORDER=
